<svg width="228" height="134" viewBox="0 0 228 134" fill="none" xmlns="http://www.w3.org/2000/svg">
<g filter="url(#filter0_d_3_39)">
<g filter="url(#filter1_d_3_39)">
<path d="M39.104 26.296C34.816 26.296 30.72 28.344 28.416 32.824C26.752 28.6 23.104 26.296 18.432 26.296C14.336 26.296 10.496 28.088 8.128 32.504V27H4.928V59H8.128V41.144C8.128 32.952 12.8 29.368 18.048 29.368C22.976 29.368 26.24 32.632 26.24 38.712V59H29.44V41.144C29.44 32.952 33.664 29.368 39.04 29.368C44.032 29.368 47.552 32.632 47.552 38.712V59H50.752V38.712C50.752 30.712 45.888 26.296 39.104 26.296ZM74.459 59.704C83.739 59.704 91.227 52.472 91.227 43C91.227 33.528 83.739 26.296 74.459 26.296C65.115 26.296 57.627 33.528 57.627 43C57.627 52.472 65.115 59.704 74.459 59.704ZM74.459 56.632C66.843 56.632 60.891 50.616 60.891 43C60.891 35.384 66.843 29.368 74.459 29.368C82.075 29.368 87.963 35.384 87.963 43C87.963 50.616 82.075 56.632 74.459 56.632ZM113.584 59.704C122.864 59.704 130.352 52.472 130.352 43C130.352 33.528 122.864 26.296 113.584 26.296C104.24 26.296 96.752 33.528 96.752 43C96.752 52.472 104.24 59.704 113.584 59.704ZM113.584 56.632C105.968 56.632 100.016 50.616 100.016 43C100.016 35.384 105.968 29.368 113.584 29.368C121.2 29.368 127.088 35.384 127.088 43C127.088 50.616 121.2 56.632 113.584 56.632ZM139.653 55.8L163.845 17.4V14.2H136.517V17.4H160.069L135.877 55.8V59H164.485V55.8H139.653ZM173.153 19.256C174.561 19.256 175.713 18.104 175.713 16.696C175.713 15.352 174.561 14.2 173.153 14.2C171.745 14.2 170.593 15.352 170.593 16.696C170.593 18.104 171.745 19.256 173.153 19.256ZM171.553 59H174.753V27H171.553V59ZM209.128 59L191.272 42.36L208.488 27H204.008L187.816 41.528V14.2H184.616V59H187.816V43.256L204.776 59H209.128Z" fill="url(#paint0_linear_3_39)" shape-rendering="crispEdges"/>
</g>
<g filter="url(#filter2_d_3_39)">
<path d="M77.5312 125.344C82.2812 125.344 87.625 120.562 90.5 116.875C91.9688 117.312 93.5 117.812 95.0938 118.406C98.5625 119.719 100.688 121.438 104.031 121.938C104.562 122 105.062 122.031 105.562 122.031C114.594 122.031 119.812 111.688 119.812 102.031C119.812 100.25 119.625 98.5312 119.281 96.875C118.375 92.3438 116.562 89.3438 113.75 85.5C113.156 84.6875 112.344 83.7188 111.312 82.8438C111.969 82.375 112.656 81.9688 113.375 81.625L113 80.8438C112.125 81.25 111.281 81.6875 110.469 82.1875C108.312 80.6875 105.781 80.0312 103.094 80.0312C93.7812 80.0312 82.8125 88.1875 80.2188 98.125L81.0625 98.3438C83.5938 88.625 94.2812 80.9062 103.125 80.9062C105.5 80.9062 107.719 81.4688 109.625 82.6562C97.25 90.125 94.3438 105.031 87.7812 115.312C85.5 114.844 83.3438 114.594 81.3125 114.594C79.9062 114.594 78.5625 114.719 77.2188 114.938C73.4375 115.594 72 117.562 72 119.594C72 122.312 74.5312 125.188 77.4062 125.344H77.5312ZM77.625 124.469H77.4688C74.875 124.344 72.875 121.75 72.875 119.562C72.875 119.094 72.9688 118.656 73.1562 118.281C73.7188 117.031 75.125 116.188 77.375 115.812C78.6562 115.594 80 115.469 81.375 115.469C83.25 115.469 85.1875 115.688 87.2812 116.094C85.7812 118.438 82.375 122.75 79.8125 123.938C79.125 124.25 78.3438 124.469 77.625 124.469ZM103.781 119.469C100.969 119.469 97.9688 118.562 95.4062 117.594C93.9062 117.031 92.4688 116.562 91.0625 116.156C98.4062 106.594 101.969 90.3438 110.594 83.375C111.406 84.0312 112.188 84.875 113.031 86.0312C115.344 89.2188 116.406 93.9062 116.406 98.75C116.406 107.594 112.875 116.969 107 119C105.969 119.344 104.906 119.469 103.781 119.469ZM130.281 119.375C134.469 119.375 138.219 114.531 139.594 110.781C142.188 110.562 146.719 110.594 147.719 107.969L146.906 107.656C146.156 109.625 142.156 109.719 139.906 109.906C140.375 108.375 140.625 106.781 140.625 105.281C140.625 101.594 139.156 98.5 135.625 98.5H135.562C131.438 98.5312 128 104.5 126.094 107.969C127.188 103.594 128.688 98.3438 130.219 94.0625C130.781 94.0938 131.312 94.125 131.875 94.125C139.344 94.125 147.156 90.625 151.688 84.5938C153.75 81.8438 154.531 79.375 154.531 77.3125C154.531 74.375 152.969 72.3125 151.344 71.4375C150 70.7812 149.438 70.75 148.469 70.6875C146.938 70.6875 145.5 71.0312 144.062 71.6875C130.562 77.9375 123.875 100.688 120.844 115.344C120.781 115.719 120.719 116.062 120.719 116.406C120.719 117.844 121.438 118.656 122.25 118.656C123 118.656 123.844 117.938 124.188 116.281L125.25 111.438C127.25 107.438 131.375 99.4375 135.562 99.375C136.906 99.375 137.562 100.5 137.688 101.812L137.719 102.25C137.719 104.625 136.438 108.344 135.5 110.438C132.156 110.844 128.688 111.094 126.688 113.406C126.031 114.156 125.688 115.031 125.688 115.844C125.688 116.844 126.188 117.781 127.188 118.438C128.219 119.094 129.25 119.375 130.281 119.375ZM128.844 118.062C128.438 118.062 128.031 117.938 127.656 117.688C126.906 117.188 126.562 116.562 126.562 115.844C126.562 115.25 126.844 114.562 127.375 113.969C129.062 112 132.062 111.75 135.031 111.375C133.75 113.906 131.25 118.062 128.844 118.062ZM131.906 93.2188C131.469 93.2188 131 93.2188 130.562 93.1875C136.219 77.9062 143.812 71.7812 148.875 71.7812C149.719 71.7812 150.219 71.8438 150.938 72.2188C152.281 72.9375 153.688 74.7188 153.688 77.3125C153.688 79.1875 152.969 81.4688 151 84.0625C146.75 89.6562 139.25 93.2188 131.906 93.2188Z" fill="#0D6EFD"/>
</g>
<g filter="url(#filter3_d_3_39)">
<path d="M39.104 26.296C34.816 26.296 30.72 28.344 28.416 32.824C26.752 28.6 23.104 26.296 18.432 26.296C14.336 26.296 10.496 28.088 8.128 32.504V27H4.928V59H8.128V41.144C8.128 32.952 12.8 29.368 18.048 29.368C22.976 29.368 26.24 32.632 26.24 38.712V59H29.44V41.144C29.44 32.952 33.664 29.368 39.04 29.368C44.032 29.368 47.552 32.632 47.552 38.712V59H50.752V38.712C50.752 30.712 45.888 26.296 39.104 26.296ZM74.459 59.704C83.739 59.704 91.227 52.472 91.227 43C91.227 33.528 83.739 26.296 74.459 26.296C65.115 26.296 57.627 33.528 57.627 43C57.627 52.472 65.115 59.704 74.459 59.704ZM74.459 56.632C66.843 56.632 60.891 50.616 60.891 43C60.891 35.384 66.843 29.368 74.459 29.368C82.075 29.368 87.963 35.384 87.963 43C87.963 50.616 82.075 56.632 74.459 56.632ZM113.584 59.704C122.864 59.704 130.352 52.472 130.352 43C130.352 33.528 122.864 26.296 113.584 26.296C104.24 26.296 96.752 33.528 96.752 43C96.752 52.472 104.24 59.704 113.584 59.704ZM113.584 56.632C105.968 56.632 100.016 50.616 100.016 43C100.016 35.384 105.968 29.368 113.584 29.368C121.2 29.368 127.088 35.384 127.088 43C127.088 50.616 121.2 56.632 113.584 56.632ZM139.653 55.8L163.845 17.4V14.2H136.517V17.4H160.069L135.877 55.8V59H164.485V55.8H139.653ZM173.153 19.256C174.561 19.256 175.713 18.104 175.713 16.696C175.713 15.352 174.561 14.2 173.153 14.2C171.745 14.2 170.593 15.352 170.593 16.696C170.593 18.104 171.745 19.256 173.153 19.256ZM171.553 59H174.753V27H171.553V59ZM209.128 59L191.272 42.36L208.488 27H204.008L187.816 41.528V14.2H184.616V59H187.816V43.256L204.776 59H209.128Z" fill="url(#paint1_linear_3_39)" shape-rendering="crispEdges"/>
</g>
<g filter="url(#filter4_d_3_39)">
<path d="M77.5312 125.344C82.2812 125.344 87.625 120.562 90.5 116.875C91.9688 117.312 93.5 117.812 95.0938 118.406C98.5625 119.719 100.688 121.438 104.031 121.938C104.562 122 105.062 122.031 105.562 122.031C114.594 122.031 119.812 111.688 119.812 102.031C119.812 100.25 119.625 98.5312 119.281 96.875C118.375 92.3438 116.562 89.3438 113.75 85.5C113.156 84.6875 112.344 83.7188 111.312 82.8438C111.969 82.375 112.656 81.9688 113.375 81.625L113 80.8438C112.125 81.25 111.281 81.6875 110.469 82.1875C108.312 80.6875 105.781 80.0312 103.094 80.0312C93.7812 80.0312 82.8125 88.1875 80.2188 98.125L81.0625 98.3438C83.5938 88.625 94.2812 80.9062 103.125 80.9062C105.5 80.9062 107.719 81.4688 109.625 82.6562C97.25 90.125 94.3438 105.031 87.7812 115.312C85.5 114.844 83.3438 114.594 81.3125 114.594C79.9062 114.594 78.5625 114.719 77.2188 114.938C73.4375 115.594 72 117.562 72 119.594C72 122.312 74.5312 125.188 77.4062 125.344H77.5312ZM77.625 124.469H77.4688C74.875 124.344 72.875 121.75 72.875 119.562C72.875 119.094 72.9688 118.656 73.1562 118.281C73.7188 117.031 75.125 116.188 77.375 115.812C78.6562 115.594 80 115.469 81.375 115.469C83.25 115.469 85.1875 115.688 87.2812 116.094C85.7812 118.438 82.375 122.75 79.8125 123.938C79.125 124.25 78.3438 124.469 77.625 124.469ZM103.781 119.469C100.969 119.469 97.9688 118.562 95.4062 117.594C93.9062 117.031 92.4688 116.562 91.0625 116.156C98.4062 106.594 101.969 90.3438 110.594 83.375C111.406 84.0312 112.188 84.875 113.031 86.0312C115.344 89.2188 116.406 93.9062 116.406 98.75C116.406 107.594 112.875 116.969 107 119C105.969 119.344 104.906 119.469 103.781 119.469ZM130.281 119.375C134.469 119.375 138.219 114.531 139.594 110.781C142.188 110.562 146.719 110.594 147.719 107.969L146.906 107.656C146.156 109.625 142.156 109.719 139.906 109.906C140.375 108.375 140.625 106.781 140.625 105.281C140.625 101.594 139.156 98.5 135.625 98.5H135.562C131.438 98.5312 128 104.5 126.094 107.969C127.188 103.594 128.688 98.3438 130.219 94.0625C130.781 94.0938 131.312 94.125 131.875 94.125C139.344 94.125 147.156 90.625 151.688 84.5938C153.75 81.8438 154.531 79.375 154.531 77.3125C154.531 74.375 152.969 72.3125 151.344 71.4375C150 70.7812 149.438 70.75 148.469 70.6875C146.938 70.6875 145.5 71.0312 144.062 71.6875C130.562 77.9375 123.875 100.688 120.844 115.344C120.781 115.719 120.719 116.062 120.719 116.406C120.719 117.844 121.438 118.656 122.25 118.656C123 118.656 123.844 117.938 124.188 116.281L125.25 111.438C127.25 107.438 131.375 99.4375 135.562 99.375C136.906 99.375 137.562 100.5 137.688 101.812L137.719 102.25C137.719 104.625 136.438 108.344 135.5 110.438C132.156 110.844 128.688 111.094 126.688 113.406C126.031 114.156 125.688 115.031 125.688 115.844C125.688 116.844 126.188 117.781 127.188 118.438C128.219 119.094 129.25 119.375 130.281 119.375ZM128.844 118.062C128.438 118.062 128.031 117.938 127.656 117.688C126.906 117.188 126.562 116.562 126.562 115.844C126.562 115.25 126.844 114.562 127.375 113.969C129.062 112 132.062 111.75 135.031 111.375C133.75 113.906 131.25 118.062 128.844 118.062ZM131.906 93.2188C131.469 93.2188 131 93.2188 130.562 93.1875C136.219 77.9062 143.812 71.7812 148.875 71.7812C149.719 71.7812 150.219 71.8438 150.938 72.2188C152.281 72.9375 153.688 74.7188 153.688 77.3125C153.688 79.1875 152.969 81.4688 151 84.0625C146.75 89.6562 139.25 93.2188 131.906 93.2188Z" fill="#0D6EFD"/>
</g>
</g>
<defs>
<filter id="filter0_d_3_39" x="0.928001" y="14.2" width="212.2" height="119.144" filterUnits="userSpaceOnUse" color-interpolation-filters="sRGB">
<feFlood flood-opacity="0" result="BackgroundImageFix"/>
<feColorMatrix in="SourceAlpha" type="matrix" values="0 0 0 0 0 0 0 0 0 0 0 0 0 0 0 0 0 0 127 0" result="hardAlpha"/>
<feOffset dy="4"/>
<feGaussianBlur stdDeviation="2"/>
<feComposite in2="hardAlpha" operator="out"/>
<feColorMatrix type="matrix" values="0 0 0 0 0 0 0 0 0 0 0 0 0 0 0 0 0 0 0.25 0"/>
<feBlend mode="normal" in2="BackgroundImageFix" result="effect1_dropShadow_3_39"/>
<feBlend mode="normal" in="SourceGraphic" in2="effect1_dropShadow_3_39" result="shape"/>
</filter>
<filter id="filter1_d_3_39" x="0.928001" y="14.2" width="212.2" height="53.504" filterUnits="userSpaceOnUse" color-interpolation-filters="sRGB">
<feFlood flood-opacity="0" result="BackgroundImageFix"/>
<feColorMatrix in="SourceAlpha" type="matrix" values="0 0 0 0 0 0 0 0 0 0 0 0 0 0 0 0 0 0 127 0" result="hardAlpha"/>
<feOffset dy="4"/>
<feGaussianBlur stdDeviation="2"/>
<feComposite in2="hardAlpha" operator="out"/>
<feColorMatrix type="matrix" values="0 0 0 0 0 0 0 0 0 0 0 0 0 0 0 0 0 0 0.25 0"/>
<feBlend mode="normal" in2="BackgroundImageFix" result="effect1_dropShadow_3_39"/>
<feBlend mode="normal" in="SourceGraphic" in2="effect1_dropShadow_3_39" result="shape"/>
</filter>
<filter id="filter2_d_3_39" x="68" y="70.6875" width="90.5312" height="62.6562" filterUnits="userSpaceOnUse" color-interpolation-filters="sRGB">
<feFlood flood-opacity="0" result="BackgroundImageFix"/>
<feColorMatrix in="SourceAlpha" type="matrix" values="0 0 0 0 0 0 0 0 0 0 0 0 0 0 0 0 0 0 127 0" result="hardAlpha"/>
<feOffset dy="4"/>
<feGaussianBlur stdDeviation="2"/>
<feComposite in2="hardAlpha" operator="out"/>
<feColorMatrix type="matrix" values="0 0 0 0 0 0 0 0 0 0 0 0 0 0 0 0 0 0 0.25 0"/>
<feBlend mode="normal" in2="BackgroundImageFix" result="effect1_dropShadow_3_39"/>
<feBlend mode="normal" in="SourceGraphic" in2="effect1_dropShadow_3_39" result="shape"/>
</filter>
<filter id="filter3_d_3_39" x="0.928001" y="14.2" width="212.2" height="53.504" filterUnits="userSpaceOnUse" color-interpolation-filters="sRGB">
<feFlood flood-opacity="0" result="BackgroundImageFix"/>
<feColorMatrix in="SourceAlpha" type="matrix" values="0 0 0 0 0 0 0 0 0 0 0 0 0 0 0 0 0 0 127 0" result="hardAlpha"/>
<feOffset dy="4"/>
<feGaussianBlur stdDeviation="2"/>
<feComposite in2="hardAlpha" operator="out"/>
<feColorMatrix type="matrix" values="0 0 0 0 0 0 0 0 0 0 0 0 0 0 0 0 0 0 0.25 0"/>
<feBlend mode="normal" in2="BackgroundImageFix" result="effect1_dropShadow_3_39"/>
<feBlend mode="normal" in="SourceGraphic" in2="effect1_dropShadow_3_39" result="shape"/>
</filter>
<filter id="filter4_d_3_39" x="68" y="70.6875" width="90.5312" height="62.6562" filterUnits="userSpaceOnUse" color-interpolation-filters="sRGB">
<feFlood flood-opacity="0" result="BackgroundImageFix"/>
<feColorMatrix in="SourceAlpha" type="matrix" values="0 0 0 0 0 0 0 0 0 0 0 0 0 0 0 0 0 0 127 0" result="hardAlpha"/>
<feOffset dy="4"/>
<feGaussianBlur stdDeviation="2"/>
<feComposite in2="hardAlpha" operator="out"/>
<feColorMatrix type="matrix" values="0 0 0 0 0 0 0 0 0 0 0 0 0 0 0 0 0 0 0.25 0"/>
<feBlend mode="normal" in2="BackgroundImageFix" result="effect1_dropShadow_3_39"/>
<feBlend mode="normal" in="SourceGraphic" in2="effect1_dropShadow_3_39" result="shape"/>
</filter>
<linearGradient id="paint0_linear_3_39" x1="108" y1="6.50001" x2="118.5" y2="122.5" gradientUnits="userSpaceOnUse">
<stop stop-color="#0D6EFD" stop-opacity="0"/>
<stop offset="0.9999" stop-color="#0B6DFF"/>
</linearGradient>
<linearGradient id="paint1_linear_3_39" x1="108" y1="6.50001" x2="118.5" y2="122.5" gradientUnits="userSpaceOnUse">
<stop stop-color="#0D6EFD" stop-opacity="0"/>
<stop offset="0.9999" stop-color="#0B6DFF"/>
</linearGradient>
</defs>
</svg>
