<svg width="270" height="270" viewBox="0 0 270 270" fill="none" xmlns="http://www.w3.org/2000/svg">
<rect width="270" height="270" fill="white"/>
<g filter="url(#filter0_d_3_46)">
<path d="M67.104 102.296C62.816 102.296 58.72 104.344 56.416 108.824C54.752 104.6 51.104 102.296 46.432 102.296C42.336 102.296 38.496 104.088 36.128 108.504V103H32.928V135H36.128V117.144C36.128 108.952 40.8 105.368 46.048 105.368C50.976 105.368 54.24 108.632 54.24 114.712V135H57.44V117.144C57.44 108.952 61.664 105.368 67.04 105.368C72.032 105.368 75.552 108.632 75.552 114.712V135H78.752V114.712C78.752 106.712 73.888 102.296 67.104 102.296ZM102.459 135.704C111.739 135.704 119.227 128.472 119.227 119C119.227 109.528 111.739 102.296 102.459 102.296C93.115 102.296 85.627 109.528 85.627 119C85.627 128.472 93.115 135.704 102.459 135.704ZM102.459 132.632C94.843 132.632 88.891 126.616 88.891 119C88.891 111.384 94.843 105.368 102.459 105.368C110.075 105.368 115.963 111.384 115.963 119C115.963 126.616 110.075 132.632 102.459 132.632ZM141.584 135.704C150.864 135.704 158.352 128.472 158.352 119C158.352 109.528 150.864 102.296 141.584 102.296C132.24 102.296 124.752 109.528 124.752 119C124.752 128.472 132.24 135.704 141.584 135.704ZM141.584 132.632C133.968 132.632 128.016 126.616 128.016 119C128.016 111.384 133.968 105.368 141.584 105.368C149.2 105.368 155.088 111.384 155.088 119C155.088 126.616 149.2 132.632 141.584 132.632ZM167.653 131.8L191.845 93.4V90.2H164.517V93.4H188.069L163.877 131.8V135H192.485V131.8H167.653ZM201.153 95.256C202.561 95.256 203.713 94.104 203.713 92.696C203.713 91.352 202.561 90.2 201.153 90.2C199.745 90.2 198.593 91.352 198.593 92.696C198.593 94.104 199.745 95.256 201.153 95.256ZM199.553 135H202.753V103H199.553V135ZM237.128 135L219.272 118.36L236.488 103H232.008L215.816 117.528V90.2H212.616V135H215.816V119.256L232.776 135H237.128Z" fill="url(#paint0_linear_3_46)" shape-rendering="crispEdges"/>
</g>
<g filter="url(#filter1_d_3_46)">
<path d="M105.531 201.344C110.281 201.344 115.625 196.562 118.5 192.875C119.969 193.312 121.5 193.812 123.094 194.406C126.562 195.719 128.688 197.438 132.031 197.938C132.562 198 133.062 198.031 133.562 198.031C142.594 198.031 147.812 187.688 147.812 178.031C147.812 176.25 147.625 174.531 147.281 172.875C146.375 168.344 144.562 165.344 141.75 161.5C141.156 160.688 140.344 159.719 139.312 158.844C139.969 158.375 140.656 157.969 141.375 157.625L141 156.844C140.125 157.25 139.281 157.688 138.469 158.188C136.312 156.688 133.781 156.031 131.094 156.031C121.781 156.031 110.812 164.188 108.219 174.125L109.062 174.344C111.594 164.625 122.281 156.906 131.125 156.906C133.5 156.906 135.719 157.469 137.625 158.656C125.25 166.125 122.344 181.031 115.781 191.312C113.5 190.844 111.344 190.594 109.312 190.594C107.906 190.594 106.562 190.719 105.219 190.938C101.438 191.594 100 193.562 100 195.594C100 198.312 102.531 201.188 105.406 201.344H105.531ZM105.625 200.469H105.469C102.875 200.344 100.875 197.75 100.875 195.562C100.875 195.094 100.969 194.656 101.156 194.281C101.719 193.031 103.125 192.188 105.375 191.812C106.656 191.594 108 191.469 109.375 191.469C111.25 191.469 113.188 191.688 115.281 192.094C113.781 194.438 110.375 198.75 107.812 199.938C107.125 200.25 106.344 200.469 105.625 200.469ZM131.781 195.469C128.969 195.469 125.969 194.562 123.406 193.594C121.906 193.031 120.469 192.562 119.062 192.156C126.406 182.594 129.969 166.344 138.594 159.375C139.406 160.031 140.188 160.875 141.031 162.031C143.344 165.219 144.406 169.906 144.406 174.75C144.406 183.594 140.875 192.969 135 195C133.969 195.344 132.906 195.469 131.781 195.469ZM158.281 195.375C162.469 195.375 166.219 190.531 167.594 186.781C170.188 186.562 174.719 186.594 175.719 183.969L174.906 183.656C174.156 185.625 170.156 185.719 167.906 185.906C168.375 184.375 168.625 182.781 168.625 181.281C168.625 177.594 167.156 174.5 163.625 174.5H163.562C159.438 174.531 156 180.5 154.094 183.969C155.188 179.594 156.688 174.344 158.219 170.062C158.781 170.094 159.312 170.125 159.875 170.125C167.344 170.125 175.156 166.625 179.688 160.594C181.75 157.844 182.531 155.375 182.531 153.312C182.531 150.375 180.969 148.312 179.344 147.438C178 146.781 177.438 146.75 176.469 146.688C174.938 146.688 173.5 147.031 172.062 147.688C158.562 153.938 151.875 176.688 148.844 191.344C148.781 191.719 148.719 192.062 148.719 192.406C148.719 193.844 149.438 194.656 150.25 194.656C151 194.656 151.844 193.938 152.188 192.281L153.25 187.438C155.25 183.438 159.375 175.438 163.562 175.375C164.906 175.375 165.562 176.5 165.688 177.812L165.719 178.25C165.719 180.625 164.438 184.344 163.5 186.438C160.156 186.844 156.688 187.094 154.688 189.406C154.031 190.156 153.688 191.031 153.688 191.844C153.688 192.844 154.188 193.781 155.188 194.438C156.219 195.094 157.25 195.375 158.281 195.375ZM156.844 194.062C156.438 194.062 156.031 193.938 155.656 193.688C154.906 193.188 154.562 192.562 154.562 191.844C154.562 191.25 154.844 190.562 155.375 189.969C157.062 188 160.062 187.75 163.031 187.375C161.75 189.906 159.25 194.062 156.844 194.062ZM159.906 169.219C159.469 169.219 159 169.219 158.562 169.188C164.219 153.906 171.812 147.781 176.875 147.781C177.719 147.781 178.219 147.844 178.938 148.219C180.281 148.938 181.688 150.719 181.688 153.312C181.688 155.188 180.969 157.469 179 160.062C174.75 165.656 167.25 169.219 159.906 169.219Z" fill="#0D6EFD"/>
</g>
<g filter="url(#filter2_d_3_46)">
<path d="M67.104 102.296C62.816 102.296 58.72 104.344 56.416 108.824C54.752 104.6 51.104 102.296 46.432 102.296C42.336 102.296 38.496 104.088 36.128 108.504V103H32.928V135H36.128V117.144C36.128 108.952 40.8 105.368 46.048 105.368C50.976 105.368 54.24 108.632 54.24 114.712V135H57.44V117.144C57.44 108.952 61.664 105.368 67.04 105.368C72.032 105.368 75.552 108.632 75.552 114.712V135H78.752V114.712C78.752 106.712 73.888 102.296 67.104 102.296ZM102.459 135.704C111.739 135.704 119.227 128.472 119.227 119C119.227 109.528 111.739 102.296 102.459 102.296C93.115 102.296 85.627 109.528 85.627 119C85.627 128.472 93.115 135.704 102.459 135.704ZM102.459 132.632C94.843 132.632 88.891 126.616 88.891 119C88.891 111.384 94.843 105.368 102.459 105.368C110.075 105.368 115.963 111.384 115.963 119C115.963 126.616 110.075 132.632 102.459 132.632ZM141.584 135.704C150.864 135.704 158.352 128.472 158.352 119C158.352 109.528 150.864 102.296 141.584 102.296C132.24 102.296 124.752 109.528 124.752 119C124.752 128.472 132.24 135.704 141.584 135.704ZM141.584 132.632C133.968 132.632 128.016 126.616 128.016 119C128.016 111.384 133.968 105.368 141.584 105.368C149.2 105.368 155.088 111.384 155.088 119C155.088 126.616 149.2 132.632 141.584 132.632ZM167.653 131.8L191.845 93.4V90.2H164.517V93.4H188.069L163.877 131.8V135H192.485V131.8H167.653ZM201.153 95.256C202.561 95.256 203.713 94.104 203.713 92.696C203.713 91.352 202.561 90.2 201.153 90.2C199.745 90.2 198.593 91.352 198.593 92.696C198.593 94.104 199.745 95.256 201.153 95.256ZM199.553 135H202.753V103H199.553V135ZM237.128 135L219.272 118.36L236.488 103H232.008L215.816 117.528V90.2H212.616V135H215.816V119.256L232.776 135H237.128Z" fill="url(#paint1_linear_3_46)" shape-rendering="crispEdges"/>
</g>
<g filter="url(#filter3_d_3_46)">
<path d="M105.531 201.344C110.281 201.344 115.625 196.562 118.5 192.875C119.969 193.312 121.5 193.812 123.094 194.406C126.562 195.719 128.688 197.438 132.031 197.938C132.562 198 133.062 198.031 133.562 198.031C142.594 198.031 147.812 187.688 147.812 178.031C147.812 176.25 147.625 174.531 147.281 172.875C146.375 168.344 144.562 165.344 141.75 161.5C141.156 160.688 140.344 159.719 139.312 158.844C139.969 158.375 140.656 157.969 141.375 157.625L141 156.844C140.125 157.25 139.281 157.688 138.469 158.188C136.312 156.688 133.781 156.031 131.094 156.031C121.781 156.031 110.812 164.188 108.219 174.125L109.062 174.344C111.594 164.625 122.281 156.906 131.125 156.906C133.5 156.906 135.719 157.469 137.625 158.656C125.25 166.125 122.344 181.031 115.781 191.312C113.5 190.844 111.344 190.594 109.312 190.594C107.906 190.594 106.562 190.719 105.219 190.938C101.438 191.594 100 193.562 100 195.594C100 198.312 102.531 201.188 105.406 201.344H105.531ZM105.625 200.469H105.469C102.875 200.344 100.875 197.75 100.875 195.562C100.875 195.094 100.969 194.656 101.156 194.281C101.719 193.031 103.125 192.188 105.375 191.812C106.656 191.594 108 191.469 109.375 191.469C111.25 191.469 113.188 191.688 115.281 192.094C113.781 194.438 110.375 198.75 107.812 199.938C107.125 200.25 106.344 200.469 105.625 200.469ZM131.781 195.469C128.969 195.469 125.969 194.562 123.406 193.594C121.906 193.031 120.469 192.562 119.062 192.156C126.406 182.594 129.969 166.344 138.594 159.375C139.406 160.031 140.188 160.875 141.031 162.031C143.344 165.219 144.406 169.906 144.406 174.75C144.406 183.594 140.875 192.969 135 195C133.969 195.344 132.906 195.469 131.781 195.469ZM158.281 195.375C162.469 195.375 166.219 190.531 167.594 186.781C170.188 186.562 174.719 186.594 175.719 183.969L174.906 183.656C174.156 185.625 170.156 185.719 167.906 185.906C168.375 184.375 168.625 182.781 168.625 181.281C168.625 177.594 167.156 174.5 163.625 174.5H163.562C159.438 174.531 156 180.5 154.094 183.969C155.188 179.594 156.688 174.344 158.219 170.062C158.781 170.094 159.312 170.125 159.875 170.125C167.344 170.125 175.156 166.625 179.688 160.594C181.75 157.844 182.531 155.375 182.531 153.312C182.531 150.375 180.969 148.312 179.344 147.438C178 146.781 177.438 146.75 176.469 146.688C174.938 146.688 173.5 147.031 172.062 147.688C158.562 153.938 151.875 176.688 148.844 191.344C148.781 191.719 148.719 192.062 148.719 192.406C148.719 193.844 149.438 194.656 150.25 194.656C151 194.656 151.844 193.938 152.188 192.281L153.25 187.438C155.25 183.438 159.375 175.438 163.562 175.375C164.906 175.375 165.562 176.5 165.688 177.812L165.719 178.25C165.719 180.625 164.438 184.344 163.5 186.438C160.156 186.844 156.688 187.094 154.688 189.406C154.031 190.156 153.688 191.031 153.688 191.844C153.688 192.844 154.188 193.781 155.188 194.438C156.219 195.094 157.25 195.375 158.281 195.375ZM156.844 194.062C156.438 194.062 156.031 193.938 155.656 193.688C154.906 193.188 154.562 192.562 154.562 191.844C154.562 191.25 154.844 190.562 155.375 189.969C157.062 188 160.062 187.75 163.031 187.375C161.75 189.906 159.25 194.062 156.844 194.062ZM159.906 169.219C159.469 169.219 159 169.219 158.562 169.188C164.219 153.906 171.812 147.781 176.875 147.781C177.719 147.781 178.219 147.844 178.938 148.219C180.281 148.938 181.688 150.719 181.688 153.312C181.688 155.188 180.969 157.469 179 160.062C174.75 165.656 167.25 169.219 159.906 169.219Z" fill="#0D6EFD"/>
</g>
<defs>
<filter id="filter0_d_3_46" x="28.928" y="90.2" width="212.199" height="53.504" filterUnits="userSpaceOnUse" color-interpolation-filters="sRGB">
<feFlood flood-opacity="0" result="BackgroundImageFix"/>
<feColorMatrix in="SourceAlpha" type="matrix" values="0 0 0 0 0 0 0 0 0 0 0 0 0 0 0 0 0 0 127 0" result="hardAlpha"/>
<feOffset dy="4"/>
<feGaussianBlur stdDeviation="2"/>
<feComposite in2="hardAlpha" operator="out"/>
<feColorMatrix type="matrix" values="0 0 0 0 0 0 0 0 0 0 0 0 0 0 0 0 0 0 0.25 0"/>
<feBlend mode="normal" in2="BackgroundImageFix" result="effect1_dropShadow_3_46"/>
<feBlend mode="normal" in="SourceGraphic" in2="effect1_dropShadow_3_46" result="shape"/>
</filter>
<filter id="filter1_d_3_46" x="96" y="146.688" width="90.5312" height="62.6562" filterUnits="userSpaceOnUse" color-interpolation-filters="sRGB">
<feFlood flood-opacity="0" result="BackgroundImageFix"/>
<feColorMatrix in="SourceAlpha" type="matrix" values="0 0 0 0 0 0 0 0 0 0 0 0 0 0 0 0 0 0 127 0" result="hardAlpha"/>
<feOffset dy="4"/>
<feGaussianBlur stdDeviation="2"/>
<feComposite in2="hardAlpha" operator="out"/>
<feColorMatrix type="matrix" values="0 0 0 0 0 0 0 0 0 0 0 0 0 0 0 0 0 0 0.25 0"/>
<feBlend mode="normal" in2="BackgroundImageFix" result="effect1_dropShadow_3_46"/>
<feBlend mode="normal" in="SourceGraphic" in2="effect1_dropShadow_3_46" result="shape"/>
</filter>
<filter id="filter2_d_3_46" x="28.928" y="90.2" width="212.199" height="53.504" filterUnits="userSpaceOnUse" color-interpolation-filters="sRGB">
<feFlood flood-opacity="0" result="BackgroundImageFix"/>
<feColorMatrix in="SourceAlpha" type="matrix" values="0 0 0 0 0 0 0 0 0 0 0 0 0 0 0 0 0 0 127 0" result="hardAlpha"/>
<feOffset dy="4"/>
<feGaussianBlur stdDeviation="2"/>
<feComposite in2="hardAlpha" operator="out"/>
<feColorMatrix type="matrix" values="0 0 0 0 0 0 0 0 0 0 0 0 0 0 0 0 0 0 0.25 0"/>
<feBlend mode="normal" in2="BackgroundImageFix" result="effect1_dropShadow_3_46"/>
<feBlend mode="normal" in="SourceGraphic" in2="effect1_dropShadow_3_46" result="shape"/>
</filter>
<filter id="filter3_d_3_46" x="96" y="146.688" width="90.5312" height="62.6562" filterUnits="userSpaceOnUse" color-interpolation-filters="sRGB">
<feFlood flood-opacity="0" result="BackgroundImageFix"/>
<feColorMatrix in="SourceAlpha" type="matrix" values="0 0 0 0 0 0 0 0 0 0 0 0 0 0 0 0 0 0 127 0" result="hardAlpha"/>
<feOffset dy="4"/>
<feGaussianBlur stdDeviation="2"/>
<feComposite in2="hardAlpha" operator="out"/>
<feColorMatrix type="matrix" values="0 0 0 0 0 0 0 0 0 0 0 0 0 0 0 0 0 0 0.25 0"/>
<feBlend mode="normal" in2="BackgroundImageFix" result="effect1_dropShadow_3_46"/>
<feBlend mode="normal" in="SourceGraphic" in2="effect1_dropShadow_3_46" result="shape"/>
</filter>
<linearGradient id="paint0_linear_3_46" x1="136" y1="82.5" x2="146.5" y2="198.5" gradientUnits="userSpaceOnUse">
<stop stop-color="#0D6EFD" stop-opacity="0"/>
<stop offset="0.9999" stop-color="#0B6DFF"/>
</linearGradient>
<linearGradient id="paint1_linear_3_46" x1="136" y1="82.5" x2="146.5" y2="198.5" gradientUnits="userSpaceOnUse">
<stop stop-color="#0D6EFD" stop-opacity="0"/>
<stop offset="0.9999" stop-color="#0B6DFF"/>
</linearGradient>
</defs>
</svg>
